<svg width="128" height="128" viewBox="0 0 128 128" fill="none" xmlns="http://www.w3.org/2000/svg">
<path d="M94.0884 25.9191C99.1298 23.8008 104.199 28.8701 102.081 33.9116L90.4321 61.6353C89.7967 63.1477 89.7967 64.8522 90.4321 66.3646L102.081 94.0883C104.199 99.1298 99.1298 104.199 94.0884 102.081L66.3646 90.4321C64.8522 89.7967 63.1477 89.7967 61.6353 90.4321L33.9116 102.081C28.8701 104.199 23.8008 99.1298 25.9191 94.0883L37.5678 66.3646C38.2033 64.8522 38.2033 63.1477 37.5678 61.6353L25.9191 33.9116C23.8008 28.8701 28.8701 23.8008 33.9116 25.9191L61.6353 37.5678C63.1477 38.2033 64.8522 38.2033 66.3646 37.5678L94.0884 25.9191Z" fill="#26A269"/>
<path d="M58.3484 15.797C60.4154 10.7343 67.5846 10.7343 69.6516 15.797L81.0183 43.6376C81.6384 45.1563 82.8437 46.3616 84.3624 46.9817L112.203 58.3484C117.266 60.4154 117.266 67.5846 112.203 69.6516L84.3624 81.0183C82.8437 81.6384 81.6384 82.8437 81.0183 84.3624L69.6516 112.203C67.5846 117.266 60.4154 117.266 58.3484 112.203L46.9817 84.3624C46.3616 82.8437 45.1563 81.6384 43.6376 81.0183L15.797 69.6516C10.7343 67.5846 10.7343 60.4154 15.797 58.3484L43.6376 46.9817C45.1563 46.3616 46.3616 45.1563 46.9817 43.6376L58.3484 15.797Z" fill="#33D17A"/>
<path d="M35.3619 80.6274C34.1323 81.1294 34.1323 82.8706 35.3619 83.3726L41.3645 85.8233C41.7333 85.9739 42.0261 86.2667 42.1767 86.6355L44.6274 92.6381C45.1294 93.8677 46.8706 93.8677 47.3726 92.6381L49.8233 86.6355C49.9739 86.2667 50.2667 85.9739 50.6355 85.8233L56.6381 83.3726C57.8677 82.8706 57.8677 81.1294 56.6381 80.6274L50.6355 78.1767C50.2667 78.0261 49.9739 77.7333 49.8233 77.3645L47.3726 71.3619C46.8706 70.1323 45.1294 70.1323 44.6274 71.3619L42.1767 77.3645C42.0261 77.7333 41.7333 78.0261 41.3645 78.1767L35.3619 80.6274Z" fill="#8FF0A4"/>
<path d="M71.3619 44.6274C70.1323 45.1294 70.1323 46.8706 71.3619 47.3726L77.3645 49.8233C77.7333 49.9739 78.0261 50.2667 78.1767 50.6355L80.6274 56.6381C81.1294 57.8677 82.8706 57.8677 83.3726 56.6381L85.8233 50.6355C85.9739 50.2667 86.2667 49.9739 86.6355 49.8233L92.6381 47.3726C93.8677 46.8706 93.8677 45.1294 92.6381 44.6274L86.6355 42.1767C86.2667 42.0261 85.9739 41.7333 85.8233 41.3645L83.3726 35.3619C82.8706 34.1323 81.1294 34.1323 80.6274 35.3619L78.1767 41.3645C78.0261 41.7333 77.7333 42.0261 77.3645 42.1767L71.3619 44.6274Z" fill="#8FF0A4"/>
</svg>
