<svg width="128" height="128" viewBox="0 0 128 128" fill="none" xmlns="http://www.w3.org/2000/svg">
<path d="M21.9766 12C16.4492 12 12 16.4609 12 22V108.031C12 113.574 16.4492 118.031 21.9766 118.031H106.02C111.551 118.031 116 113.574 116 108.031V35.9453C116 29.3164 110.641 23.9453 104.027 23.9453H58C55.5469 23.9453 53.3047 22.5586 52.2031 20.3633L50.6992 17.3711C49.043 14.0781 45.6797 12 42 12H21.9766Z" fill="#12868F"/>
<rect x="40" y="20" width="48" height="48" rx="4" fill="#FEC64C"/>
<path d="M40 24C40 21.7909 41.7909 20 44 20H84C86.2091 20 88 21.7909 88 24V28H40V24Z" fill="#FFAA41"/>
<rect width="42" height="42" rx="4" transform="matrix(-0.866025 -0.5 -0.5 0.866025 127.687 47.3135)" fill="#F6FBE5"/>
<rect x="99.9737" y="31.3135" width="42" height="2.00001" transform="rotate(120 99.9737 31.3135)" fill="#D0ED78"/>
<rect x="124.687" y="52.5096" width="42" height="2" transform="rotate(-150 124.687 52.5096)" fill="#D0ED78"/>
<rect x="121.687" y="57.7058" width="40" height="2" transform="rotate(-150 121.687 57.7058)" fill="#D0ED78"/>
<rect x="118.687" y="62.9019" width="42" height="2" transform="rotate(-150 118.687 62.9019)" fill="#D0ED78"/>
<rect x="115.687" y="68.0981" width="42" height="2" transform="rotate(-150 115.687 68.0981)" fill="#D0ED78"/>
<rect x="112.687" y="73.2942" width="42" height="2" transform="rotate(-150 112.687 73.2942)" fill="#D0ED78"/>
<rect x="109.687" y="78.4904" width="42" height="2" transform="rotate(-150 109.687 78.4904)" fill="#D0ED78"/>
<path d="M107.222 81.6864C106.026 82.3758 104.504 82.4267 103.222 81.6865L73.7776 64.6865C72.4955 63.9464 71.7791 62.6036 71.7778 61.2226L107.222 81.6864Z" fill="#D0ED78"/>
<rect x="1.94745" y="51.9475" width="44" height="44" rx="6" transform="rotate(-30 1.94745 51.9475)" fill="url(#paint0_linear_2066_117)" stroke="#FAE5FB" stroke-width="4"/>
<path d="M65.9766 36C63.2305 36 60.75 37.1016 58.9492 38.8906C56.6758 41.1445 53.5664 44 50.3164 44H21.9766C16.4492 44 12 48.4609 12 54V108.031C12 113.574 16.4492 118.031 21.9766 118.031H106.02C111.551 118.031 116 113.574 116 108.031V46C116 40.4609 111.551 36 106.02 36H65.9766Z" fill="url(#paint1_linear_2066_117)"/>
<path d="M65.9766 36C63.2305 36 60.75 37.1016 58.9492 38.8906C56.6758 41.1445 53.5664 44 50.3164 44H21.9766C16.4492 44 12 48.4609 12 54L12 105.977C12 111.516 16.4492 115.977 21.9766 115.977H106.02C111.551 115.977 116 111.516 116 105.977V46C116 40.4609 111.551 36 106.02 36H65.9766Z" fill="#69CED5"/>
<defs>
<linearGradient id="paint0_linear_2066_117" x1="44.6795" y1="72.6795" x2="4.6795" y2="72.6795" gradientUnits="userSpaceOnUse">
<stop stop-color="#FE4CD2"/>
<stop offset="1" stop-color="#F05101"/>
</linearGradient>
<linearGradient id="paint1_linear_2066_117" x1="11.9998" y1="112" x2="116" y2="112" gradientUnits="userSpaceOnUse">
<stop stop-color="#12868F"/>
<stop offset="0.0576991" stop-color="#6ED9E0"/>
<stop offset="0.122204" stop-color="#12868F"/>
<stop offset="0.873306" stop-color="#12868F"/>
<stop offset="0.955997" stop-color="#6ED9E0"/>
<stop offset="1" stop-color="#12868F"/>
</linearGradient>
</defs>
</svg>
